<svg width="12" height="12" viewBox="0 0 12 12" fill="none" xmlns="http://www.w3.org/2000/svg">
<path d="M9.69187 6.00288C9.69187 5.74888 9.48859 5.54311 9.23801 5.54311H6.46059V2.7698C6.46059 2.51495 6.2538 2.30816 5.99912 2.30816C5.74426 2.30816 5.53747 2.51486 5.53747 2.76972V6.00108C5.53747 6.25602 5.74426 6.46273 5.99912 6.46273H9.23826C9.48859 6.46273 9.69187 6.25688 9.69187 6.00288ZM11.0779 5.99997C11.0779 8.80492 8.80441 11.0788 6.00006 11.0788C3.19553 11.0788 0.922184 8.80492 0.922184 5.99997C0.922184 3.19502 3.19553 0.921158 6.00006 0.921158C8.80441 0.921158 11.0779 3.19502 11.0779 5.99997ZM11.9999 5.99997C11.9999 2.68625 9.31369 0 6.00006 0C2.68625 0 0 2.68625 0 5.99997C0 9.31369 2.68625 11.9999 6.00006 11.9999C9.31369 11.9999 11.9999 9.31369 11.9999 5.99997Z" fill="white"/>
</svg>
