<svg width="137" height="108" viewBox="0 0 137 108" fill="none" xmlns="http://www.w3.org/2000/svg">
<path d="M27.2431 65.6848L19.3046 49.5516L27.2431 46.0945L35.6938 51.9844L36.9742 43.0216L44.1445 40.9729L48.3699 58.7706L42.2239 60.3071L40.8154 53.0087L36.9742 58.7706L30.4441 54.9294L33.0049 63.3801L27.2431 65.6848Z" fill="#00A3FF"/>
<path fill-rule="evenodd" clip-rule="evenodd" d="M15.129 48.0197L27.5941 42.5914L33.3605 46.6103L34.217 40.6143L46.3948 37.1349L52.0643 61.0154L39.8245 64.0753L39.2205 60.9457L37.9229 62.8921L35.6694 61.5665L36.7664 65.1865L25.7453 69.5949L15.129 48.0197ZM30.4472 54.9294L36.9773 58.7706L40.8185 53.0088L42.227 60.3071L48.3729 58.7706L44.1476 40.973L36.9773 43.0216L35.6969 51.9845L27.2462 46.0946L19.3077 49.5517L27.2462 65.6849L33.008 63.3801L30.4472 54.9294Z" fill="#00A3FF"/>
<path fill-rule="evenodd" clip-rule="evenodd" d="M52.4679 39.6929L50.5473 58.1308L55.1568 57.3625V51.6007L59.3821 50.4483L63.3514 55.3139L67.3207 53.1372L58.1017 38.1564L52.4679 39.6929ZM55.0287 47.3753L55.4129 43.406L57.4615 46.6071L55.0287 47.3753Z" fill="#00A3FF"/>
<path fill-rule="evenodd" clip-rule="evenodd" d="M49.6283 37.2819L53.0061 36.3607L53.2091 34.2639L54.3214 36.002L59.5118 34.5864L71.6298 54.2783L62.5856 59.238L58.2624 53.9387L58.2286 53.9479V59.9659L47.0717 61.8253L49.6283 37.2819ZM59.3809 50.4484L55.1556 51.6008V57.3626L50.5461 58.1309L52.4667 39.693L58.1005 38.1565L67.3195 53.1373L63.3502 55.314L59.3809 50.4484ZM57.4603 46.6072L55.0275 47.3755L55.4117 43.4062L57.4603 46.6072Z" fill="#00A3FF"/>
<path fill-rule="evenodd" clip-rule="evenodd" d="M104.724 53.7869L116.01 68.4928L110.342 70.2944L107.269 65.1728L103.626 66.3252L103.626 72.7937L99.1042 73.0163L99.1193 55.4261L104.724 53.7869ZM105.732 62.3559L102.915 58.3866L102.915 62.3559L105.732 62.3559Z" fill="#00A3FF"/>
<path fill-rule="evenodd" clip-rule="evenodd" d="M105.882 50.2467L101.763 51.4514L99.8431 48.7467L99.8431 52.0128L96.049 53.1225L96.029 76.2443L106.699 75.719L106.699 70.1951L108.958 73.959L121.114 70.0951L105.882 50.2467ZM103.626 66.3251L103.626 72.7936L99.1048 73.0162L99.12 55.4261L104.725 53.7868L116.011 68.4927L110.342 70.2944L107.27 65.1727L103.626 66.3251ZM105.733 62.3558L102.916 62.3558L102.916 58.3866L105.733 62.3558Z" fill="#00A3FF"/>
<path fill-rule="evenodd" clip-rule="evenodd" d="M70.135 57.4905L65.988 76.203L70.6508 75.8941L71.6715 69.7824L75.5388 69.4313L79.0078 74.6653L83.1728 72.8916L74.3603 56.7222L70.135 57.4905ZM71.6715 66.1973L72.285 62.0312L74.3603 66.1973L71.6715 66.1973Z" fill="#00A3FF"/>
<path fill-rule="evenodd" clip-rule="evenodd" d="M67.5766 54.8319L70.3124 54.3344L70.6711 51.899L71.7537 54.0724L75.9958 53.3011L87.4907 74.3923L77.8592 78.4941L74.2433 73.0384L73.2813 78.7991L62.101 79.5398L67.5766 54.8319ZM75.5389 69.4309L79.0079 74.6649L83.1729 72.8911L74.3604 56.7218L70.1351 57.49L65.9881 76.2025L70.6509 75.8936L71.6716 69.782L75.5389 69.4309ZM74.3604 66.1968L71.6716 66.1968L72.2851 62.0308L74.3604 66.1968Z" fill="#00A3FF"/>
<path d="M62.9719 42.4773L61.9694 36.975L70.9207 33.61L73.2391 41.4291L77.15 33.0651L82.3097 32.9295L77.676 43.4096L82.6161 49.4281L91.1892 48.5991L90.7629 52.9316L80.2659 53.6999L73.7319 46.8813L73.8654 50.7542L68.8142 55.0175L67.668 39.2083L62.9719 42.4773Z" fill="#00A3FF"/>
<path fill-rule="evenodd" clip-rule="evenodd" d="M58.4869 35.0014L72.9293 29.5723L73.8848 32.7946L75.1713 30.0431L87.0849 29.7301L81.2521 42.9221L83.9522 46.2116L94.614 45.1807L93.5683 55.8075L79.0483 56.8702L75.6213 53.2939L66.1861 61.2574L64.994 44.8144L60.8059 47.7298L58.4869 35.0014ZM67.6686 39.2083L68.8148 55.0175L73.866 50.7542L73.7325 46.8813L80.2664 53.6999L90.7635 52.9316L91.1898 48.5991L82.6167 49.4281L77.6766 43.4096L82.3103 32.9295L77.1506 33.0651L73.2397 41.4291L70.9213 33.6101L61.97 36.975L62.9725 42.4773L67.6686 39.2083Z" fill="#00A3FF"/>
<path fill-rule="evenodd" clip-rule="evenodd" d="M96.8837 38.3494L87.2169 39.075C87.2287 40.5416 87.3557 43.1016 90.0951 43.4821C92.885 43.8696 93.5422 42.9312 94.1872 42.01C94.3339 41.8006 94.4799 41.592 94.6502 41.4002L97.0704 44.451C96.5548 45.3705 92.5124 47.6701 89.5842 47.16C85.924 46.5223 82.6689 42.9677 82.905 38.476C83.2543 31.8308 86.8665 30.6683 89.6831 30.6271C93.051 30.5779 97.784 31.8679 96.8837 38.3494ZM90.1405 33.3942C88.0831 33.3153 87.3222 35.0711 87.1989 35.9588L93.156 35.8814C93.2794 34.9936 92.7122 33.4929 90.1405 33.3942Z" fill="#00A3FF"/>
<path fill-rule="evenodd" clip-rule="evenodd" d="M87.8543 42.1086C87.582 41.6638 87.4272 41.1581 87.3387 40.6581C87.2382 40.0902 87.2235 39.5298 87.2199 39.0746L96.8866 38.349C97.4051 34.6164 96.0553 32.6056 94.1739 31.5807C92.9669 30.9232 91.5411 30.6715 90.2494 30.6313C90.0583 30.6254 89.8701 30.6241 89.686 30.6268C88.8785 30.6386 88.0055 30.7426 87.1629 31.0415C85.0663 31.7852 83.1571 33.7356 82.9079 38.4757C82.6718 42.9673 85.9269 46.5219 89.5871 47.1596C91.1566 47.4331 93.0462 46.8993 94.5413 46.2034C94.8709 46.05 95.1813 45.8888 95.4649 45.7265C96.2949 45.2517 96.895 44.7686 97.0733 44.4506L94.6531 41.3998C94.5922 41.4684 94.5344 41.5392 94.4785 41.6114C94.3782 41.741 94.2843 41.8751 94.1901 42.0096C93.7743 42.6035 93.3534 43.2045 92.3593 43.4529C91.8114 43.5897 91.0893 43.6195 90.098 43.4818C88.9571 43.3233 88.2693 42.7868 87.8543 42.1086ZM93.159 35.8811C93.1734 35.7768 93.1784 35.6641 93.1717 35.5462C93.1683 35.4864 93.1619 35.4251 93.1522 35.363C93.0905 34.9673 92.8956 34.5347 92.4955 34.1755C92.0288 33.7566 91.2829 33.4376 90.1434 33.3939C89.9981 33.3883 89.8592 33.3919 89.7266 33.4036C89.2103 33.4495 88.7885 33.6197 88.4476 33.8579C87.6362 34.4249 87.2825 35.3776 87.2018 35.9585L93.159 35.8811ZM99.5893 41.2278L98.5038 41.3093L100.762 44.1556L99.7537 45.9535C99.4489 46.4971 99.0437 46.8969 98.7859 47.1303C98.4871 47.4007 98.155 47.6516 97.8217 47.8775C97.153 48.3306 96.3386 48.7778 95.4595 49.1597C93.8073 49.8775 91.3977 50.5943 89.0597 50.187C83.9161 49.2909 79.5189 44.4075 79.8392 38.3143C80.042 34.4554 81.2349 31.5948 83.3583 29.7532C85.4319 27.9548 87.8814 27.5799 89.6411 27.5541C91.6109 27.5253 94.4518 27.8595 96.7388 29.5866C99.297 31.5185 100.501 34.6668 99.9304 38.7718L99.5893 41.2278Z" fill="#00A3FF"/>
<path fill-rule="evenodd" clip-rule="evenodd" d="M97.9221 30.1477L99.0744 51.7777H102.788L103.556 43.327L110.086 51.7777L114.695 48.3206L106.629 40.1259C108.934 40.382 113.023 38.525 112.391 34.3731C111.494 28.4832 107.525 26.1785 97.9221 30.1477ZM102.788 37.0619V32.1964C103.204 32.1964 103.592 32.1852 103.952 32.1748C106.033 32.1149 107.198 32.0814 107.525 34.3731C107.832 36.5242 104.495 37.0619 102.788 37.0619Z" fill="#00A3FF"/>
<path fill-rule="evenodd" clip-rule="evenodd" d="M94.7388 28.1389L96.7493 27.3078C101.705 25.2595 106.019 24.452 109.448 25.6667C113.261 27.0169 114.895 30.3973 115.43 33.9109C115.936 37.2373 114.481 39.7966 112.491 41.3345C112.423 41.3871 112.354 41.4388 112.284 41.4893L119.352 48.67L109.508 56.0536L105.909 51.3967L105.595 54.8508H96.1619L94.7388 28.1389ZM103.557 43.3271L110.087 51.7778L114.696 48.3207L106.63 40.1261C107.625 40.2366 108.953 39.9531 110.09 39.2609C111.586 38.3502 112.751 36.732 112.392 34.3732C111.587 29.086 108.306 26.6878 100.697 29.1235C100.378 29.2257 100.051 29.3365 99.7157 29.4559C99.1413 29.6608 98.544 29.8912 97.9231 30.1478L99.0755 51.7778H102.789L103.557 43.3271ZM105.862 36.5444C106.897 36.1435 107.682 35.4669 107.526 34.3732C107.318 32.9137 106.77 32.3973 105.862 32.2302C105.789 32.2168 105.714 32.2057 105.637 32.1965C105.163 32.1401 104.603 32.1562 103.954 32.1749C103.593 32.1853 103.205 32.1965 102.789 32.1965V37.062C103.363 37.062 104.123 37.0011 104.866 36.8382C105.208 36.7632 105.546 36.6666 105.862 36.5444Z" fill="#00A3FF"/>
<path d="M45.5472 67.4792L44.3642 63.5045C39.2956 63.2847 33.3661 64.3441 31.7403 68.569C30.1146 72.794 32.5288 74.4059 33.8422 75.5205C35.1556 76.6351 41.1365 75.9564 40.6323 77.9626C40.2289 79.5675 35.6332 80.4898 33.3858 80.7503L35.042 84.4027C36.711 84.005 40.7541 82.8817 43.5745 81.5705C47.1 79.9314 46.9012 77.5034 45.7697 73.9093C44.6382 70.3153 36.3424 72.9863 36.5243 70.5069C36.6698 68.5233 42.6002 67.6619 45.5472 67.4792Z" fill="#00A3FF"/>
<path fill-rule="evenodd" clip-rule="evenodd" d="M46.6866 60.5295L49.5966 70.3074L47.0039 70.4682C47.7228 71.0584 48.3512 71.871 48.7025 72.9868C49.2617 74.7629 49.8528 76.9568 49.4347 79.0699C48.9414 81.5625 47.2424 83.2552 44.8716 84.3573C41.7692 85.7997 37.4886 86.9794 35.756 87.3923L33.2913 87.9796L28.849 78.1832L31.825 77.8382C31.7815 77.802 31.7292 77.7596 31.6695 77.7111C31.084 77.2358 29.7812 76.1783 28.9726 74.6449C27.9236 72.6558 27.8015 70.2529 28.874 67.4658C30.1463 64.1594 33.0145 62.3715 35.7996 61.4522C38.5948 60.5296 41.7488 60.3155 44.499 60.4347L46.6866 60.5295ZM38.0337 76.4234C38.0427 76.4247 38.0516 76.426 38.0606 76.4273C39.5959 76.6481 40.8786 76.9893 40.6339 77.9629C40.4703 78.6139 39.6169 79.1526 38.5103 79.5804C38.483 79.5909 38.4556 79.6013 38.4281 79.6117C37.8345 79.8358 37.1726 80.0286 36.5076 80.1905C35.3669 80.4681 34.2171 80.6545 33.3874 80.7506L35.0436 84.403C36.7126 84.0053 40.7557 82.882 43.5761 81.5708C47.1016 79.9317 46.9029 77.5037 45.7714 73.9096C45.1552 71.9526 42.4149 71.8532 40.0757 71.7683C39.8463 71.76 39.6207 71.7518 39.4013 71.742C39.3451 71.7395 39.2893 71.7369 39.234 71.7342C37.6634 71.6562 36.4553 71.4702 36.5259 70.5072C36.58 69.7699 37.4333 69.1877 38.6355 68.7377C38.7269 68.7035 38.8203 68.6701 38.9155 68.6374C39.96 68.2789 41.2232 68.0111 42.4442 67.8208C43.5874 67.6427 44.6937 67.5325 45.5488 67.4795L44.3659 63.5048C39.2972 63.285 33.3677 64.3444 31.742 68.5693C30.2219 72.5196 32.2336 74.1856 33.5751 75.2966C33.6684 75.3738 33.7584 75.4484 33.8438 75.5208C34.3753 75.9719 35.671 76.1293 36.9921 76.2897C37.3421 76.3322 37.6939 76.375 38.0337 76.4234Z" fill="#00A3FF"/>
<path d="M51.9554 78.617L48.7543 62.0997L52.9797 60.4352L54.004 66.9653L58.6135 66.3251L57.8452 58.7706L63.7351 58.1304V76.6964H59.8939L59.3817 69.7822L54.6442 70.5504L55.6685 77.9768L51.9554 78.617Z" fill="#00A3FF"/>
<path fill-rule="evenodd" clip-rule="evenodd" d="M45.2499 60.1768L54.5261 56.5225L54.4776 56.0455L66.8065 54.7054V79.7694H59.0162L59.117 80.5003L49.5096 82.1568L45.2499 60.1768ZM59.8923 76.6964H63.7335V58.1305L57.8436 58.7707L58.6118 66.3251L54.0024 66.9653L52.978 60.4352L48.7527 62.0998L51.9537 78.617L55.6669 77.9768L54.6426 70.5505L59.3801 69.7822L59.8923 76.6964Z" fill="#00A3FF"/>
<path d="M85.244 74.52L82.8112 56.7223L87.9329 55.4419L88.5731 68.5021L95.6153 66.9656L97.1518 73.8798L85.244 74.52Z" fill="#00A3FF"/>
<path fill-rule="evenodd" clip-rule="evenodd" d="M79.3954 54.4091L90.8209 51.5527L91.4666 64.7258L97.953 63.3106L100.94 76.7535L82.5846 77.7404L79.3954 54.4091ZM88.575 68.502L87.9348 55.4418L82.8132 56.7222L85.246 74.5199L97.1538 73.8797L95.6173 66.9655L88.575 68.502Z" fill="#00A3FF"/>
<path d="M102.146 39.4367L52.5941 48.5276C51.6722 55.8003 61.2582 69.7397 66.1664 75.8003H77.6901L102.146 68.7581V39.4367Z" fill="#00A3FF"/>
<path d="M27.2431 65.6848L19.3046 49.5516L27.2431 46.0945L35.6938 51.9844L36.9742 43.0216L44.1445 40.9729L48.3699 58.7706L42.2239 60.3071L40.8154 53.0087L36.9742 58.7706L30.4441 54.9294L33.0049 63.3801L27.2431 65.6848Z" fill="#FAFAFF"/>
<path fill-rule="evenodd" clip-rule="evenodd" d="M52.4679 39.6929L50.5473 58.1308L55.1568 57.3625V51.6007L59.3821 50.4483L63.3514 55.3139L67.3207 53.1372L58.1017 38.1564L52.4679 39.6929ZM55.0287 47.3753L55.4129 43.406L57.4615 46.6071L55.0287 47.3753Z" fill="#FAFAFF"/>
<path fill-rule="evenodd" clip-rule="evenodd" d="M104.724 53.7869L116.01 68.4928L110.342 70.2944L107.269 65.1728L103.626 66.3252L103.626 72.7937L99.1042 73.0163L99.1193 55.4261L104.724 53.7869ZM105.732 62.3559L102.915 58.3866L102.915 62.3559L105.732 62.3559Z" fill="#FAFAFF"/>
<path fill-rule="evenodd" clip-rule="evenodd" d="M70.135 57.4905L65.988 76.203L70.6508 75.8941L71.6715 69.7824L75.5388 69.4313L79.0078 74.6653L83.1728 72.8916L74.3603 56.7222L70.135 57.4905ZM71.6715 66.1973L72.285 62.0312L74.3603 66.1973L71.6715 66.1973Z" fill="#FAFAFF"/>
<path d="M62.9719 42.4773L61.9694 36.975L70.9207 33.61L73.2391 41.4291L77.15 33.0651L82.3097 32.9295L77.676 43.4096L82.6161 49.4281L91.1892 48.5991L90.7629 52.9316L80.2659 53.6999L73.7319 46.8813L73.8654 50.7542L68.8142 55.0175L67.668 39.2083L62.9719 42.4773Z" fill="#FAFAFF"/>
<path fill-rule="evenodd" clip-rule="evenodd" d="M96.8837 38.3494L87.2169 39.075C87.2287 40.5416 87.3557 43.1016 90.0951 43.4821C92.885 43.8696 93.5422 42.9312 94.1872 42.01C94.3339 41.8006 94.4799 41.592 94.6502 41.4002L97.0704 44.451C96.5548 45.3705 92.5124 47.6701 89.5842 47.16C85.924 46.5223 82.6689 42.9677 82.905 38.476C83.2543 31.8308 86.8665 30.6683 89.6831 30.6271C93.051 30.5779 97.784 31.8679 96.8837 38.3494ZM90.1405 33.3942C88.0831 33.3153 87.3222 35.0711 87.1989 35.9588L93.156 35.8814C93.2794 34.9936 92.7122 33.4929 90.1405 33.3942Z" fill="#FAFAFF"/>
<path fill-rule="evenodd" clip-rule="evenodd" d="M97.9221 30.1477L99.0744 51.7777H102.788L103.556 43.327L110.086 51.7777L114.695 48.3206L106.629 40.1259C108.934 40.382 113.023 38.525 112.391 34.3731C111.494 28.4832 107.525 26.1785 97.9221 30.1477ZM102.788 37.0619V32.1964C103.204 32.1964 103.592 32.1852 103.952 32.1748C106.033 32.1149 107.198 32.0814 107.525 34.3731C107.832 36.5242 104.495 37.0619 102.788 37.0619Z" fill="#FAFAFF"/>
<path d="M45.5466 67.4793L44.3637 63.5045C39.2951 63.2848 33.3656 64.3442 31.7398 68.5691C30.6325 71.4467 31.2974 74.5197 33.773 75.6721C36.5237 76.9525 41.0714 73.8795 41.5836 77.0806C41.845 78.7146 35.1242 78.6126 32.8768 78.8731L35.0415 84.4028C36.7105 84.0051 40.7536 82.8818 43.574 81.5705C47.0995 79.9315 49.0674 77.9908 47.6015 74.5197C45.5466 69.6542 36.3419 72.9864 36.5238 70.5069C36.6693 68.5234 42.5996 67.662 45.5466 67.4793Z" fill="#FAFAFF"/>
<path d="M51.9554 78.617L48.7543 62.0997L52.9797 60.4352L54.004 66.9653L58.6135 66.3251L57.8452 58.7706L63.7351 58.1304V76.6964H59.8939L59.3817 69.7822L54.6442 70.5504L55.6685 77.9768L51.9554 78.617Z" fill="#FAFAFF"/>
<path d="M85.244 74.52L82.8112 56.7223L87.9329 55.4419L88.5731 68.5021L95.6153 66.9656L97.1518 73.8798L85.244 74.52Z" fill="#FAFAFF"/>
<path d="M72.4503 0.0240292C66.0995 0.43376 60.6706 14.6207 58.7499 21.6629C57.5976 27.126 56.4452 34.7743 61.0547 21.6629C65.6642 8.55155 71.426 5.18835 73.7307 5.14568C77.3159 6.04196 77.4439 13.7244 78.2122 10.5234C78.9804 7.32236 80.3889 -0.488134 72.4503 0.0240292Z" fill="#00A3FF"/>
<path d="M80.4071 18.3585C80.6757 17.9414 81.3212 18.1117 81.3491 18.607L81.4656 20.6779C81.4781 20.8994 81.6318 21.0877 81.8463 21.1443L83.8519 21.6734C84.3316 21.8 84.3691 22.4665 83.9066 22.6461L81.9731 23.3969C81.7663 23.4772 81.6347 23.6815 81.6471 23.9031L81.7637 25.9739C81.7916 26.4693 81.1693 26.7109 80.8556 26.3266L79.544 24.7197C79.4037 24.5478 79.1687 24.4858 78.9619 24.5661L77.0284 25.3169C76.5659 25.4965 76.1438 24.9793 76.4124 24.5622L77.5353 22.8183C77.6554 22.6318 77.6418 22.3891 77.5015 22.2172L76.19 20.6103C75.8763 20.2259 76.2377 19.6647 76.7174 19.7912L78.7229 20.3203C78.9375 20.3769 79.1641 20.289 79.2842 20.1024L80.4071 18.3585Z" fill="#00A3FF"/>
<path d="M0.885948 40.9889C0.098569 46.3507 7.30254 50.7041 8.18428 49.4396C9.44545 47.6311 3.81174 44.1312 6.24453 40.9889C8.93338 37.5159 26.7502 39.4524 27.0063 37.9159C27.2624 36.3794 22.5249 35.7392 14.7144 35.8673C6.90389 35.9953 1.50239 36.7911 0.885948 40.9889Z" fill="#00A3FF"/>
<path d="M125.839 12.2892C121.742 9.21618 110.047 16.1304 104.712 19.9716C102.92 24.197 119.693 12.0709 123.406 16.6425C127.119 21.2142 117.004 32.2635 119.693 32.5196C122.382 32.7757 130.961 16.1304 125.839 12.2892Z" fill="#00A3FF"/>
<path d="M12.7092 101.411C16.8065 104.484 28.5009 97.5699 33.8359 93.7286C35.6285 89.5033 18.8552 101.629 15.142 97.0577C11.4288 92.486 21.544 81.4367 18.8551 81.1806C16.1663 80.9246 7.58755 97.5699 12.7092 101.411Z" fill="#00A3FF"/>
<path d="M134.977 78.6977C136.728 73.8848 126.717 64.7008 121.493 60.7104C116.929 60.2215 133.867 72.7123 130.57 77.5926C127.273 82.473 113.508 77.0805 113.833 78.6885C114.369 81.3359 132.788 84.7138 134.977 78.6977Z" fill="#00A3FF"/>
<path d="M65.194 103.235C61.2247 102.594 59.6883 93.8876 58.0237 94.5278C57.5116 98.6251 60.9687 107.332 65.194 107.972C69.4194 108.612 74.9251 98.1129 73.6447 97.4727C72.3643 96.8325 69.1633 103.875 65.194 103.235Z" fill="#00A3FF"/>
<path d="M22.6336 75.4161C22.6336 76.3354 21.8884 77.0806 20.9691 77.0806C20.0498 77.0806 19.3046 76.3354 19.3046 75.4161C19.3046 74.4968 20.0498 73.7515 20.9691 73.7515C21.8884 73.7515 22.6336 74.4968 22.6336 75.4161Z" fill="#00A3FF"/>
<path fill-rule="evenodd" clip-rule="evenodd" d="M76.3791 82.5141C75.3171 83.2979 74.4904 84.7412 74.4904 86.6835C74.4904 88.366 75.0142 89.3803 75.6084 90.019C76.2241 90.6808 76.9963 91.0247 77.6043 91.2089C78.1457 91.373 78.4516 91.9449 78.2876 92.4863C78.1235 93.0277 77.5516 93.3336 77.0102 93.1695C76.2098 92.927 75.0613 92.4386 74.1085 91.4145C73.1343 90.3673 72.4417 88.8422 72.4417 86.6835C72.4417 84.1443 73.5356 82.0665 75.1625 80.8658C76.7921 79.663 78.9461 79.364 80.8681 80.4051C82.5519 81.3172 83.6229 82.4204 84.2152 83.6445C84.8057 84.8649 84.8712 86.1036 84.7247 87.203C84.5641 88.407 83.6142 89.586 82.4228 90.2219C81.159 90.8963 79.4921 91.0357 77.8914 89.9686C76.4222 88.9891 75.8228 87.4578 76.0038 86.1C76.1832 84.7545 77.1904 83.4825 78.8438 83.4825C79.4095 83.4825 79.8681 83.9411 79.8681 84.5068C79.8681 85.0725 79.4095 85.5311 78.8438 85.5311C78.4485 85.5311 78.1112 85.7956 78.0345 86.3707C77.9595 86.9335 78.1924 87.707 79.0278 88.264C79.9239 88.8614 80.7749 88.7792 81.4582 88.4145C82.2139 88.0112 82.6405 87.3336 82.694 86.9322C82.8035 86.111 82.7409 85.3011 82.3711 84.5368C82.0031 83.7763 81.2816 82.959 79.8924 82.2065C78.7414 81.583 77.4384 81.7322 76.3791 82.5141Z" fill="#00A3FF"/>
<path d="M36.0779 53.9055L35.6938 51.9849L27.2431 46.095L19.3046 49.5521L27.2431 65.6852L28.1394 65.3011L21.7373 50.5764L27.2431 48.1436L36.0779 53.9055Z" fill="#FAFAFF"/>
<path d="M86.5244 72.8553L84.4758 56.338L82.8112 56.7221L85.244 74.5198L97.1518 73.8796L96.6396 71.5749L86.5244 72.8553Z" fill="#FAFAFF"/>
<path d="M100.353 51.7285L99.3285 29.5775L97.92 30.0896L99.0724 51.7285H100.353Z" fill="#FAFAFF"/>
<path d="M103.428 41.8694L103.556 43.4059L110.086 51.7285L112.007 50.3201L103.428 41.8694Z" fill="#FAFAFF"/>
<path d="M41.8421 51.7283L40.8178 53.0087L42.2263 60.307L44.0188 59.7948L41.8421 51.7283Z" fill="#FAFAFF"/>
<path d="M108.421 34.059C108.293 32.3945 106.287 32.053 105.476 32.1384C106.756 32.6505 107.397 32.9066 107.397 34.3151C107.397 35.8511 106.202 36.564 105.348 36.7478C107.269 36.3637 108.579 36.1175 108.421 34.059Z" fill="#FAFAFF"/>
<path d="M41.7349 44.093L38.8978 44.7606C38.5036 44.8533 38.126 44.5542 38.126 44.1493C38.126 43.8624 38.3204 43.612 38.5983 43.5409L42.8513 42.453C43.2762 42.3443 43.7057 42.6127 43.7942 43.0423L44.4113 46.0398C44.4789 46.3679 44.3016 46.6973 43.9906 46.8217C43.5989 46.9784 43.1593 46.751 43.0609 46.3407L42.6579 44.6616C42.5592 44.2503 42.1466 43.9961 41.7349 44.093Z" fill="#FAFAFF"/>
<path d="M43.8869 48.7836C43.6821 47.9642 43.9723 47.5886 44.143 47.5032C44.3991 47.5032 44.6552 47.5032 44.9113 48.3995C45.1673 49.2958 45.0393 49.808 44.7832 49.808C44.5271 49.808 44.143 49.808 43.8869 48.7836Z" fill="#FAFAFF"/>
<path d="M109.059 29.5774C108.24 28.9629 106.584 28.8092 105.858 28.8092C104.706 29.5774 107.267 29.5774 108.675 30.3457C110.084 31.1139 110.212 33.1626 110.724 32.5224C111.236 31.8822 110.084 30.3457 109.059 29.5774Z" fill="#FAFAFF"/>
<path d="M111.621 34.1868C111.621 33.6747 111.237 33.1625 110.853 33.2905C110.597 33.4186 110.853 33.9307 110.853 34.3149C110.853 34.699 111.237 35.4672 111.493 35.3392C111.749 35.2112 111.621 34.699 111.621 34.1868Z" fill="#FAFAFF"/>
<path d="M95.1059 67.7333C94.3377 67.426 92.6731 67.9894 92.9292 68.5015C93.0573 68.7576 94.3377 68.1174 94.7218 68.2454C95.1059 68.3735 95.1059 70.5502 95.49 70.5502C96.1429 70.5502 95.7461 67.9894 95.1059 67.7333Z" fill="#FAFAFF"/>
<path d="M69.2405 36.4916L62.3263 39.0525L62.9665 42.3815L67.576 39.1805L68.8564 54.9295L71.5452 52.6248L69.2405 36.4916Z" fill="#FAFAFF"/>
<path d="M73.5939 44.0461L73.7219 46.863L80.252 53.6491L90.7514 52.8809L91.0075 50.7042L81.5324 51.3444L73.5939 44.0461Z" fill="#FAFAFF"/>
<path d="M100.868 72.9226V54.9295L99.075 55.4417V73.0057L100.868 72.9226Z" fill="#FAFAFF"/>
<path d="M102.917 56.7222V58.3867L105.734 62.356L107.399 62.2279L102.917 56.7222Z" fill="#FAFAFF"/>
<path d="M108.935 64.6607L107.271 65.1729L110.344 70.2945L112.777 69.5263L108.935 64.6607Z" fill="#FAFAFF"/>
<path d="M32.8772 72.2152C31.981 68.8862 34.9686 65.5998 36.0783 64.6608C33.5175 65.4291 30.4445 67.7338 31.3408 72.7274C32.0578 76.7223 36.5904 76.1845 37.6148 75.8004C35.182 75.5443 33.5958 74.8842 32.8772 72.2152Z" fill="#FAFAFF"/>
<path d="M36.3336 83.0984L35.0532 84.3788L32.8765 78.873C39.1505 78.6169 41.1991 77.8487 41.4552 77.3365C41.6601 76.9268 41.1138 76.1415 40.815 75.8C42.9917 75.8 43.888 77.4646 42.7356 78.873C41.8137 79.9998 37.4006 80.1961 35.4373 80.2815L36.3336 83.0984Z" fill="#FAFAFF"/>
<path d="M53.4918 78.2332L50.4189 61.4598L48.7543 62.1L51.9554 78.6173L53.4918 78.2332Z" fill="#FAFAFF"/>
<path d="M54.2601 68.5021L54.004 66.9656L58.6135 66.3254L57.8452 58.771L60.4061 58.5149V67.6058L54.2601 68.5021Z" fill="#FAFAFF"/>
<path d="M60.6621 69.6545L59.3817 69.7825L59.8939 76.6967H61.1743L60.6621 69.6545Z" fill="#FAFAFF"/>
<path d="M87.9023 66.1025L87.3359 57.0392C87.3141 56.6904 86.9613 56.4619 86.634 56.5846C86.4171 56.666 86.2801 56.881 86.2981 57.1121L87.0036 66.1656C87.0218 66.4002 87.2175 66.5811 87.4527 66.5811C87.7126 66.5811 87.9185 66.3619 87.9023 66.1025Z" fill="#FAFAFF"/>
<path d="M52.0848 36.62L51.9568 33.419L54.3896 33.0349V35.9798L52.0848 36.62Z" fill="#561598"/>
<path d="M52.724 57.618L53.8764 39.3082L52.4679 39.6923L50.5473 58.0021L52.724 57.618Z" fill="#FAFAFF"/>
<path d="M55.5409 41.3568L55.4129 43.4055L57.4615 46.6065L59.6382 45.8383L55.5409 41.3568Z" fill="#FAFAFF"/>
<path d="M61.8149 49.5514L59.3821 50.4477L63.3514 55.3133L65.4 54.1609L61.8149 49.5514Z" fill="#FAFAFF"/>
<path d="M68.344 75.9282L71.545 57.2343L70.1366 57.4903L66.0392 76.1843L68.344 75.9282Z" fill="#FAFAFF"/>
<path d="M72.6974 59.7951L72.3133 61.9718L74.3619 66.1971H76.1545L72.6974 59.7951Z" fill="#FAFAFF"/>
<path d="M77.819 69.1421L75.5143 69.5262L78.9714 74.6478L80.764 73.7515L77.819 69.1421Z" fill="#FAFAFF"/>
<path d="M76.4782 62.2744L74.0868 57.9471C74.0207 57.8276 73.8849 57.7646 73.751 57.7914C73.5444 57.8327 73.4366 58.0619 73.5365 58.2474L75.8805 62.6005C75.9625 62.7529 76.1459 62.8195 76.3067 62.7552C76.4968 62.6791 76.5772 62.4537 76.4782 62.2744Z" fill="#FAFAFF"/>
<path d="M63.2162 63.2062L63.1464 59.6805C63.1436 59.5389 63.0474 59.4161 62.9105 59.3795C62.7085 59.3256 62.5103 59.4778 62.5103 59.6868L62.5103 63.2132C62.5103 63.3841 62.6328 63.5305 62.801 63.5607C63.0203 63.5999 63.2207 63.4289 63.2162 63.2062Z" fill="#FAFAFF"/>
<path d="M60.5011 43.5942L58.7208 40.1522C58.6584 40.0317 58.5238 39.967 58.3908 39.9936C58.1867 40.0344 58.0828 40.2635 58.1867 40.4439L60.1203 43.8022C60.2202 43.9758 60.4819 43.9329 60.5212 43.7365C60.5308 43.6882 60.5238 43.638 60.5011 43.5942Z" fill="#FAFAFF"/>
<path d="M77.4015 64.1686C77.2735 63.9125 77.0174 63.4004 76.7613 63.5284C76.6333 63.6564 76.6333 63.7845 76.7613 64.0406C76.8894 64.2966 77.1454 64.8088 77.4015 64.8088C77.6576 64.8088 77.5296 64.4247 77.4015 64.1686Z" fill="#FAFAFF"/>
<path d="M63.2231 66.0688C63.223 65.7825 63.2533 64.9163 62.967 64.9164C62.7952 64.9737 62.7108 65.5264 62.7109 65.8127C62.711 66.099 62.8182 67.175 63.0472 67.2894C63.2763 67.4039 63.2232 66.3551 63.2231 66.0688Z" fill="#FAFAFF"/>
<path d="M61.302 44.8143C61.1739 44.5582 61.1419 44.4503 60.8858 44.5784C60.7578 44.7064 60.7578 44.8143 60.8858 45.0703C61.0139 45.3264 61.0459 45.3264 61.302 45.3264C61.558 45.3264 61.43 45.0703 61.302 44.8143Z" fill="#FAFAFF"/>
<path d="M84.3477 37.9C84.3477 34.0075 86.7378 31.5833 87.9329 30.8577C86.439 31.0284 82.8112 32.9064 82.8112 38.4121C82.8112 44.0608 86.9512 46.4787 89.2133 46.9909C85.244 44.4301 84.3477 42.7655 84.3477 37.9Z" fill="#FAFAFF"/>
<path d="M93.9509 35.8516C93.8485 33.598 91.1767 33.2907 89.8536 33.4188C91.5182 33.5468 92.2864 34.059 92.7986 34.5712C93.2083 34.9809 93.2254 35.5955 93.1827 35.8516H93.9509Z" fill="#FAFAFF"/>
<path d="M95.2334 43.79C94.9773 43.2778 94.4651 42.6376 94.7212 42.3815C95.3614 42.7657 96.3857 44.4302 96.1296 44.4302C95.8735 44.4302 95.4894 44.3021 95.2334 43.79Z" fill="#FAFAFF"/>
<path d="M96.1296 35.0832C95.9248 33.6491 94.8492 32.6077 94.337 32.2663C93.8249 32.6504 95.2334 33.9308 95.4894 35.0832C95.7455 36.2356 95.7455 37.516 96.1296 37.644C96.5137 37.7721 96.3857 36.8758 96.1296 35.0832Z" fill="#FAFAFF"/>
<path d="M47.9849 68.8859L44.9119 69.7822L47.9849 71.4467V68.8859Z" fill="#00A3FF"/>
</svg>
