<svg width="142" height="114" viewBox="0 0 142 114" fill="none" xmlns="http://www.w3.org/2000/svg">
<path d="M27.6879 68.8429L19.3677 51.9341L27.6879 48.3107L36.5449 54.4838L37.8868 45.09L45.4019 42.9429L49.8304 61.5962L43.3889 63.2066L41.9127 55.5574L37.8868 61.5962L31.0428 57.5703L33.7267 66.4273L27.6879 68.8429Z" fill="#F0FAF0"/>
<path fill-rule="evenodd" clip-rule="evenodd" d="M14.9873 50.3285L28.0517 44.6392L34.0953 48.8513L34.9931 42.5671L47.7563 38.9204L53.6984 63.9489L40.8701 67.156L40.2371 63.8759L38.8771 65.9159L36.5153 64.5266L37.665 68.3206L26.1141 72.941L14.9873 50.3285ZM31.042 57.5704L37.8861 61.5963L41.912 55.5574L43.3881 63.2067L49.8296 61.5963L45.4011 42.9429L37.8861 45.0901L36.5441 54.4839L27.6871 48.3108L19.3669 51.9341L27.6871 68.8429L33.726 66.4274L31.042 57.5704Z" fill="#F0FAF0"/>
<path fill-rule="evenodd" clip-rule="evenodd" d="M54.1243 41.6011L52.1113 60.9254L56.9424 60.1202V54.0814L61.3709 52.8736L65.531 57.9731L69.6911 55.6918L60.0289 39.9907L54.1243 41.6011ZM56.8082 49.6529L57.2108 45.4928L59.358 48.8477L56.8082 49.6529Z" fill="#F0FAF0"/>
<path fill-rule="evenodd" clip-rule="evenodd" d="M51.1489 39.0742L54.6892 38.1087L54.9018 35.9111L56.0677 37.7327L61.5076 36.2491L74.2082 56.8877L64.7291 62.0859L60.1981 56.5318L60.1627 56.5415V62.8488L48.4694 64.7976L51.1489 39.0742ZM61.3704 52.8738L56.9419 54.0815V60.1204L52.1109 60.9256L54.1238 41.6012L60.0285 39.9909L69.6906 55.6919L65.5305 57.9732L61.3704 52.8738ZM59.3575 48.8479L56.8077 49.653L57.2103 45.4929L59.3575 48.8479Z" fill="#F0FAF0"/>
<path fill-rule="evenodd" clip-rule="evenodd" d="M108.894 56.373L120.723 71.7858L114.782 73.6741L111.561 68.3062L107.743 69.514L107.743 76.2934L103.004 76.5267L103.02 58.091L108.894 56.373ZM109.951 65.3539L106.998 61.1938L106.998 65.3539L109.951 65.3539Z" fill="#F0FAF0"/>
<path fill-rule="evenodd" clip-rule="evenodd" d="M110.105 52.6626L105.788 53.9252L103.776 51.0905L103.776 54.5136L99.7997 55.6767L99.7789 79.9101L110.962 79.3595L110.962 73.57L113.329 77.5149L126.07 73.4652L110.105 52.6626ZM107.741 69.514L107.741 76.2935L103.003 76.5268L103.018 58.0909L108.893 56.3729L120.722 71.7858L114.78 73.6741L111.56 68.3062L107.741 69.514ZM109.949 65.3539L106.997 65.3539L106.997 61.1938L109.949 65.3539Z" fill="#F0FAF0"/>
<path fill-rule="evenodd" clip-rule="evenodd" d="M72.6436 60.2544L68.2973 79.8665L73.1843 79.5428L74.254 73.1373L78.3073 72.7693L81.9431 78.255L86.3083 76.3959L77.0721 59.4492L72.6436 60.2544ZM74.254 69.3798L74.897 65.0135L77.0721 69.3798L74.254 69.3798Z" fill="#F0FAF0"/>
<path fill-rule="evenodd" clip-rule="evenodd" d="M69.9618 57.4682L72.8291 56.9468L73.205 54.3944L74.3397 56.6722L78.7857 55.8638L90.8333 77.9691L80.7387 82.2681L76.949 76.5501L75.9407 82.5877L64.2229 83.364L69.9618 57.4682ZM78.3069 72.7691L81.9426 78.2548L86.3078 76.3957L77.0717 59.449L72.6432 60.2542L68.2969 79.8663L73.1839 79.5426L74.2536 73.1371L78.3069 72.7691ZM77.0717 69.3796L74.2536 69.3796L74.8966 65.0132L77.0717 69.3796Z" fill="#F0FAF0"/>
<path d="M65.1349 44.5194L64.0842 38.7525L73.4659 35.2258L75.8958 43.4208L79.9946 34.6547L85.4024 34.5126L80.5459 45.4965L85.7236 51.8044L94.7088 50.9356L94.262 55.4763L83.2603 56.2815L76.4122 49.1351L76.5522 53.1942L71.2581 57.6625L70.0568 41.0932L65.1349 44.5194Z" fill="#F0FAF0"/>
<path fill-rule="evenodd" clip-rule="evenodd" d="M60.4336 36.684L75.5704 30.9938L76.5718 34.3711L77.9202 31.4872L90.4066 31.1591L84.2933 44.9855L87.1232 48.4331L98.2976 47.3526L97.2016 58.4903L81.9836 59.6042L78.3918 55.8559L68.503 64.2022L67.2535 46.9687L62.8641 50.0243L60.4336 36.684ZM70.0567 41.0931L71.258 57.6624L76.5521 53.1941L76.4122 49.135L83.2603 56.2814L94.2619 55.4762L94.7088 50.9354L85.7235 51.8042L80.5459 45.4964L85.4024 34.5125L79.9946 34.6545L75.8957 43.4207L73.4659 35.2257L64.0842 38.7524L65.1349 44.5193L70.0567 41.0931Z" fill="#F0FAF0"/>
<path fill-rule="evenodd" clip-rule="evenodd" d="M100.679 40.193L90.5479 40.9535C90.5602 42.4907 90.6934 45.1737 93.5644 45.5726C96.4885 45.9787 97.1772 44.9951 97.8533 44.0297C98.007 43.8102 98.16 43.5916 98.3386 43.3905L100.875 46.588C100.335 47.5517 96.098 49.9619 93.029 49.4273C89.1928 48.7589 85.7812 45.0334 86.0287 40.3258C86.3948 33.361 90.1806 32.1427 93.1326 32.0995C96.6624 32.0479 101.623 33.3999 100.679 40.193ZM93.612 34.9997C91.4558 34.9169 90.6582 36.7571 90.529 37.6876L96.7726 37.6064C96.9018 36.676 96.3074 35.1031 93.612 34.9997Z" fill="#F0FAF0"/>
<path fill-rule="evenodd" clip-rule="evenodd" d="M91.2122 44.1331C90.9269 43.6669 90.7646 43.1368 90.6719 42.6128C90.5666 42.0176 90.5511 41.4302 90.5473 40.9532L100.679 40.1927C101.222 36.2807 99.8076 34.1731 97.8357 33.099C96.5707 32.4099 95.0763 32.1461 93.7225 32.104C93.5222 32.0978 93.325 32.0964 93.132 32.0992C92.2857 32.1116 91.3708 32.2206 90.4876 32.5339C88.2903 33.3133 86.2892 35.3575 86.028 40.3254C85.7806 45.033 89.1922 48.7586 93.0284 49.4269C94.6734 49.7135 96.6538 49.154 98.2207 48.4248C98.5662 48.264 98.8915 48.095 99.1887 47.9249C100.059 47.4273 100.688 46.921 100.874 46.5877L98.338 43.3902C98.2741 43.4621 98.2135 43.5363 98.1549 43.6119C98.0498 43.7478 97.9514 43.8884 97.8527 44.0293C97.4168 44.6517 96.9757 45.2817 95.9339 45.5419C95.3596 45.6854 94.6028 45.7165 93.5638 45.5722C92.3681 45.4061 91.6472 44.8438 91.2122 44.1331ZM96.7719 37.6061C96.7871 37.4968 96.7923 37.3787 96.7853 37.2552C96.7817 37.1924 96.775 37.1283 96.7649 37.0632C96.7002 36.6485 96.496 36.195 96.0766 35.8186C95.5875 35.3795 94.8057 35.0452 93.6114 34.9993C93.4591 34.9935 93.3136 34.9972 93.1746 35.0096C92.6335 35.0576 92.1914 35.236 91.834 35.4857C90.9837 36.08 90.6129 37.0784 90.5283 37.6872L96.7719 37.6061ZM103.511 43.2099L102.374 43.2953L104.74 46.2785L103.684 48.1628C103.364 48.7325 102.94 49.1515 102.669 49.3961C102.356 49.6795 102.008 49.9426 101.659 50.1793C100.958 50.6542 100.104 51.1229 99.1831 51.5232C97.4514 52.2755 94.926 53.0268 92.4756 52.5999C87.0848 51.6607 82.4761 46.5424 82.8118 40.1564C83.0244 36.1119 84.2746 33.1138 86.5001 31.1836C88.6734 29.2988 91.2407 28.9058 93.0849 28.8788C95.1494 28.8486 98.127 29.1989 100.524 31.009C103.205 33.0339 104.467 36.3335 103.869 40.6358L103.511 43.2099Z" fill="#F0FAF0"/>
<path fill-rule="evenodd" clip-rule="evenodd" d="M101.764 31.5971L102.972 54.267H106.864L107.669 45.41L114.513 54.267L119.344 50.6437L110.89 42.055C113.305 42.3234 117.591 40.3772 116.929 36.0256C115.989 29.8525 111.829 27.437 101.764 31.5971ZM106.864 38.8437V33.7442C107.3 33.7442 107.707 33.7325 108.085 33.7217C110.265 33.6589 111.486 33.6237 111.829 36.0256C112.151 38.2801 108.653 38.8437 106.864 38.8437Z" fill="#F0FAF0"/>
<path fill-rule="evenodd" clip-rule="evenodd" d="M98.4269 29.4917L100.534 28.6207C105.728 26.4739 110.249 25.6276 113.844 26.9006C117.839 28.3158 119.552 31.8587 120.113 35.5412C120.643 39.0276 119.119 41.7099 117.032 43.3217C116.961 43.3769 116.889 43.431 116.816 43.484L124.224 51.0099L113.906 58.7485L110.134 53.8677L109.805 57.4878H99.9184L98.4269 29.4917ZM107.669 45.4101L114.513 54.2671L119.344 50.6438L110.89 42.0552C111.933 42.1711 113.325 41.874 114.516 41.1484C116.084 40.1939 117.305 38.498 116.929 36.0257C116.085 30.4844 112.647 27.9709 104.671 30.5237C104.337 30.6308 103.994 30.7469 103.643 30.8721C103.041 31.0868 102.415 31.3283 101.764 31.5972L102.972 54.2671H106.864L107.669 45.4101ZM110.085 38.3014C111.169 37.8812 111.993 37.172 111.829 36.0257C111.611 34.4961 111.036 33.9549 110.085 33.7797C110.008 33.7657 109.93 33.754 109.849 33.7444C109.353 33.6853 108.766 33.7022 108.085 33.7218C107.707 33.7327 107.3 33.7444 106.864 33.7444V38.8439C107.466 38.8439 108.262 38.78 109.041 38.6092C109.399 38.5307 109.754 38.4294 110.085 38.3014Z" fill="#F0FAF0"/>
<path d="M46.8705 70.7236L45.6307 66.5578C40.3184 66.3275 34.1038 67.4378 32.3999 71.8659C30.696 76.2939 33.2263 77.9834 34.6028 79.1516C35.9794 80.3198 42.2478 79.6085 41.7193 81.7111C41.2966 83.3932 36.4799 84.3598 34.1245 84.6328L35.8603 88.4608C37.6096 88.044 41.847 86.8667 44.803 85.4924C48.498 83.7745 48.2897 81.2298 47.1038 77.4629C45.9179 73.6961 37.2232 76.4956 37.4138 73.8969C37.5663 71.818 43.7818 70.9152 46.8705 70.7236Z" fill="#F0FAF0"/>
<path fill-rule="evenodd" clip-rule="evenodd" d="M48.0637 63.4393L51.1137 73.6873L48.3963 73.8558C49.1498 74.4744 49.8084 75.3261 50.1766 76.4956C50.7626 78.357 51.3822 80.6563 50.9439 82.871C50.4269 85.4835 48.6462 87.2576 46.1615 88.4127C42.91 89.9244 38.4235 91.1609 36.6076 91.5936L34.0245 92.2092L29.3686 81.9417L32.4876 81.5802C32.442 81.5422 32.3873 81.4978 32.3247 81.447C31.7111 80.9489 30.3456 79.8404 29.4981 78.2334C28.3986 76.1487 28.2707 73.6302 29.3948 70.7091C30.7282 67.2437 33.7343 65.3699 36.6534 64.4064C39.5829 63.4394 42.8885 63.215 45.7709 63.3399L48.0637 63.4393ZM38.9949 80.0974C39.0043 80.0987 39.0137 80.1001 39.023 80.1014C40.6322 80.3328 41.9765 80.6905 41.72 81.7109C41.5486 82.3932 40.6542 82.9578 39.4943 83.4061C39.4658 83.4171 39.4371 83.4281 39.4082 83.439C38.786 83.6738 38.0923 83.8759 37.3954 84.0455C36.1998 84.3365 34.9948 84.5318 34.1252 84.6326L35.861 88.4606C37.6103 88.0438 41.8477 86.8665 44.8037 85.4922C48.4987 83.7743 48.2904 81.2296 47.1045 77.4627C46.4588 75.4116 43.5867 75.3074 41.135 75.2185C40.8945 75.2097 40.6581 75.2012 40.4282 75.1909C40.3693 75.1883 40.3108 75.1855 40.2528 75.1827C38.6067 75.101 37.3405 74.906 37.4146 73.8967C37.4712 73.124 38.3656 72.5138 39.6256 72.0422C39.7214 72.0063 39.8193 71.9713 39.9191 71.937C41.0137 71.5612 42.3377 71.2806 43.6174 71.0812C44.8156 70.8945 45.975 70.779 46.8712 70.7235L45.6314 66.5576C40.3191 66.3273 34.1045 67.4376 32.4006 71.8657C30.8075 76.0059 32.9159 77.752 34.3219 78.9164C34.4197 78.9973 34.514 79.0755 34.6035 79.1514C35.1605 79.6241 36.5186 79.7891 37.9031 79.9573C38.27 80.0018 38.6387 80.0466 38.9949 80.0974Z" fill="#F0FAF0"/>
<path d="M53.5873 82.3968L50.2324 65.0854L54.6609 63.3408L55.7345 70.1849L60.5656 69.5139L59.7604 61.5963L65.9335 60.9253V80.3838H61.9075L61.3708 73.1372L56.4055 73.9424L57.4791 81.7258L53.5873 82.3968Z" fill="#F0FAF0"/>
<path fill-rule="evenodd" clip-rule="evenodd" d="M46.5613 63.0699L56.2835 59.24L56.2327 58.74L69.1543 57.3354V83.6045H60.9895L61.0951 84.3705L51.0258 86.1066L46.5613 63.0699ZM61.9076 80.3838H65.9335V60.9252L59.7605 61.5962L60.5657 69.5138L55.7346 70.1848L54.661 63.3408L50.2325 65.0853L53.5874 82.3967L57.4791 81.7257L56.4056 73.9423L61.3708 73.1371L61.9076 80.3838Z" fill="#F0FAF0"/>
<path d="M88.4785 78.1028L85.9287 59.4494L91.2966 58.1074L91.9676 71.7955L99.3484 70.1851L100.959 77.4318L88.4785 78.1028Z" fill="#F0FAF0"/>
<path fill-rule="evenodd" clip-rule="evenodd" d="M82.3472 57.0249L94.3219 54.0312L94.9987 67.8377L101.797 66.3544L104.928 80.4436L85.6897 81.478L82.3472 57.0249ZM91.9681 71.7954L91.2971 58.1073L85.9292 59.4493L88.479 78.1026L100.959 77.4316L99.3489 70.185L91.9681 71.7954Z" fill="#F0FAF0"/>
<path d="M106.192 41.3325L54.2576 50.8605C53.2914 58.4829 63.3383 73.0924 68.4825 79.4444H80.5602L106.192 72.0636V41.3325Z" fill="#F0FAF0"/>
<path d="M27.6868 68.8429L19.3666 51.9341L27.6868 48.3107L36.5438 54.4838L37.8857 45.09L45.4008 42.9429L49.8293 61.5962L43.3878 63.2066L41.9116 55.5574L37.8857 61.5962L31.0417 57.5703L33.7256 66.4273L27.6868 68.8429Z" fill="#6308BD"/>
<path fill-rule="evenodd" clip-rule="evenodd" d="M54.1243 41.6011L52.1113 60.9254L56.9424 60.1202V54.0814L61.3709 52.8736L65.531 57.9731L69.6911 55.6918L60.0289 39.9907L54.1243 41.6011ZM56.8082 49.6529L57.2108 45.4928L59.358 48.8477L56.8082 49.6529Z" fill="#6308BD"/>
<path fill-rule="evenodd" clip-rule="evenodd" d="M108.894 56.373L120.723 71.7858L114.782 73.6741L111.561 68.3062L107.743 69.514L107.743 76.2934L103.004 76.5267L103.02 58.091L108.894 56.373ZM109.951 65.3539L106.998 61.1938L106.998 65.3539L109.951 65.3539Z" fill="#6308BD"/>
<path fill-rule="evenodd" clip-rule="evenodd" d="M72.6432 60.2544L68.2968 79.8665L73.1838 79.5428L74.2535 73.1373L78.3068 72.7693L81.9426 78.255L86.3078 76.3959L77.0716 59.4492L72.6432 60.2544ZM74.2535 69.3798L74.8965 65.0135L77.0717 69.3798L74.2535 69.3798Z" fill="#6308BD"/>
<path d="M65.1343 44.5194L64.0836 38.7525L73.4653 35.2258L75.8952 43.4208L79.994 34.6547L85.4018 34.5126L80.5453 45.4965L85.723 51.8044L94.7082 50.9356L94.2614 55.4763L83.2597 56.2815L76.4116 49.1351L76.5516 53.1942L71.2575 57.6625L70.0562 41.0932L65.1343 44.5194Z" fill="#6308BD"/>
<path fill-rule="evenodd" clip-rule="evenodd" d="M100.679 40.193L90.5479 40.9535C90.5602 42.4907 90.6934 45.1737 93.5644 45.5726C96.4885 45.9787 97.1772 44.9951 97.8533 44.0297C98.007 43.8102 98.16 43.5916 98.3386 43.3905L100.875 46.588C100.335 47.5517 96.098 49.9619 93.029 49.4273C89.1928 48.7589 85.7812 45.0334 86.0287 40.3258C86.3948 33.361 90.1806 32.1427 93.1326 32.0995C96.6624 32.0479 101.623 33.3999 100.679 40.193ZM93.612 34.9997C91.4558 34.9169 90.6582 36.7571 90.529 37.6876L96.7726 37.6064C96.9018 36.676 96.3074 35.1031 93.612 34.9997Z" fill="#6308BD"/>
<path fill-rule="evenodd" clip-rule="evenodd" d="M101.764 31.5971L102.972 54.267H106.864L107.669 45.41L114.513 54.267L119.344 50.6437L110.89 42.055C113.305 42.3234 117.591 40.3772 116.929 36.0256C115.989 29.8525 111.829 27.437 101.764 31.5971ZM106.864 38.8437V33.7442C107.3 33.7442 107.707 33.7325 108.085 33.7217C110.265 33.6589 111.486 33.6237 111.829 36.0256C112.151 38.2801 108.653 38.8437 106.864 38.8437Z" fill="#6308BD"/>
<path d="M46.8706 70.7237L45.6308 66.5579C40.3185 66.3276 34.1039 67.4379 32.4 71.866C31.2394 74.882 31.9363 78.1026 34.5309 79.3104C37.4139 80.6524 42.1802 77.4317 42.717 80.7866C42.991 82.4992 35.947 82.3923 33.5916 82.6654L35.8604 88.4609C37.6096 88.044 41.8471 86.8668 44.8031 85.4925C48.4981 83.7746 50.5606 81.7406 49.0242 78.1026C46.8706 73.0032 37.2233 76.4956 37.4139 73.897C37.5664 71.818 43.7819 70.9152 46.8706 70.7237Z" fill="#6308BD"/>
<path d="M53.5873 82.3968L50.2324 65.0854L54.6609 63.3408L55.7345 70.1849L60.5656 69.5139L59.7604 61.5963L65.9335 60.9253V80.3838H61.9075L61.3708 73.1372L56.4055 73.9424L57.4791 81.7258L53.5873 82.3968Z" fill="#6308BD"/>
<path d="M88.4785 78.1028L85.9287 59.4494L91.2966 58.1074L91.9676 71.7955L99.3484 70.1851L100.959 77.4318L88.4785 78.1028Z" fill="#6308BD"/>
<path d="M75.0655 0.0251845C68.4094 0.454614 62.7194 15.3236 60.7065 22.7044C59.4987 28.4302 58.2909 36.4462 63.122 22.7044C67.9531 8.96268 73.992 5.43779 76.4075 5.39307C80.165 6.33245 80.2992 14.3842 81.1044 11.0293C81.9096 7.6744 83.3857 -0.511603 75.0655 0.0251845Z" fill="#F0FAF0"/>
<path d="M83.4065 19.2411C83.688 18.8039 84.3645 18.9824 84.3937 19.5015L84.5159 21.672C84.529 21.9041 84.69 22.1015 84.9149 22.1608L87.0168 22.7153C87.5196 22.848 87.559 23.5465 87.0742 23.7348L85.0478 24.5216C84.831 24.6058 84.6931 24.82 84.7061 25.0522L84.8283 27.2226C84.8575 27.7418 84.2053 27.995 83.8765 27.5922L82.5019 25.9081C82.3549 25.7279 82.1085 25.6629 81.8917 25.7471L79.8653 26.534C79.3805 26.7222 78.9381 26.1802 79.2197 25.743L80.3966 23.9153C80.5225 23.7198 80.5082 23.4654 80.3611 23.2853L78.9866 21.6011C78.6578 21.1983 79.0366 20.6101 79.5394 20.7427L81.6413 21.2972C81.8662 21.3565 82.1037 21.2643 82.2296 21.0688L83.4065 19.2411Z" fill="#F0FAF0"/>
<path d="M0.0629062 42.9598C-0.762328 48.5793 6.78799 53.142 7.71213 51.8168C9.03393 49.9213 3.12937 46.2531 5.67912 42.9598C8.49724 39.3198 27.1707 41.3494 27.4391 39.739C27.7075 38.1287 22.7422 37.4577 14.5562 37.5919C6.37017 37.7261 0.708984 38.5602 0.0629062 42.9598Z" fill="#F0FAF0"/>
<path d="M131.025 12.8802C126.73 9.65952 114.474 16.9061 108.882 20.932C107.003 25.3606 124.583 12.6515 128.475 17.4429C132.367 22.2344 121.765 33.8149 124.583 34.0833C127.401 34.3517 136.392 16.9061 131.025 12.8802Z" fill="#F0FAF0"/>
<path d="M12.455 106.287C16.7493 109.507 29.006 102.261 34.5975 98.2349C36.4763 93.8064 18.8965 106.516 15.0048 101.724C11.1131 96.9326 21.7146 85.3521 18.8965 85.0837C16.0784 84.8153 7.08717 102.261 12.455 106.287Z" fill="#F0FAF0"/>
<path d="M140.603 82.4812C142.438 77.4369 131.946 67.8114 126.471 63.6292C121.687 63.1167 139.44 76.2081 135.984 81.323C132.529 86.438 118.102 80.7862 118.443 82.4715C119.004 85.2462 138.308 88.7865 140.603 82.4812Z" fill="#F0FAF0"/>
<path d="M67.4629 108.198C63.3028 107.527 61.6925 98.4014 59.9479 99.0723C59.4111 103.367 63.0344 112.492 67.4629 113.163C71.8914 113.834 77.6619 102.83 76.3199 102.159C74.9779 101.488 71.623 108.869 67.4629 108.198Z" fill="#F0FAF0"/>
<path d="M22.8557 79.0419C22.8557 80.0054 22.0746 80.7865 21.1111 80.7865C20.1476 80.7865 19.3666 80.0054 19.3666 79.0419C19.3666 78.0784 20.1476 77.2974 21.1111 77.2974C22.0746 77.2974 22.8557 78.0784 22.8557 79.0419Z" fill="#F0FAF0"/>
<path fill-rule="evenodd" clip-rule="evenodd" d="M79.1855 86.4813C78.0724 87.3028 77.206 88.8155 77.206 90.8512C77.206 92.6146 77.755 93.6777 78.3778 94.3471C79.0231 95.0407 79.8324 95.4011 80.4697 95.5942C81.0371 95.7662 81.3577 96.3656 81.1858 96.933C81.0138 97.5004 80.4144 97.821 79.847 97.6491C79.008 97.3949 77.8044 96.883 76.8058 95.8097C75.7847 94.7122 75.0588 93.1137 75.0588 90.8512C75.0588 88.19 76.2053 86.0123 77.9104 84.7538C79.6183 83.4932 81.876 83.1798 83.8904 84.271C85.6551 85.2269 86.7776 86.3832 87.3984 87.6661C88.0173 88.9451 88.0859 90.2434 87.9323 91.3957C87.7641 92.6576 86.7685 93.8933 85.5198 94.5597C84.1953 95.2665 82.4482 95.4126 80.7706 94.2942C79.2307 93.2676 78.6025 91.6628 78.7922 90.2396C78.9802 88.8294 80.0358 87.4963 81.7687 87.4963C82.3616 87.4963 82.8423 87.9769 82.8423 88.5699C82.8423 89.1628 82.3616 89.6434 81.7687 89.6434C81.3544 89.6434 81.0009 89.9207 80.9205 90.5234C80.8419 91.1132 81.086 91.9239 81.9616 92.5077C82.9008 93.1338 83.7926 93.0476 84.5089 92.6654C85.3008 92.2427 85.7479 91.5326 85.804 91.1119C85.9188 90.2512 85.8532 89.4024 85.4656 88.6013C85.0799 87.8042 84.3237 86.9476 82.8677 86.1589C81.6614 85.5055 80.2957 85.6619 79.1855 86.4813Z" fill="#F0FAF0"/>
<path d="M36.9464 56.497L36.5438 54.4841L27.6868 48.311L19.3666 51.9343L27.6868 68.8431L28.6262 68.4406L21.9163 53.0079L27.6868 50.4582L36.9464 56.497Z" fill="#6308BD"/>
<path d="M89.8204 76.358L87.6733 59.0466L85.9287 59.4492L88.4785 78.1026L100.959 77.4316L100.422 75.0161L89.8204 76.358Z" fill="#6308BD"/>
<path d="M104.314 54.2156L103.24 30.9995L101.764 31.5363L102.972 54.2156H104.314Z" fill="#6308BD"/>
<path d="M107.534 43.8823L107.668 45.4927L114.512 54.2155L116.525 52.7393L107.534 43.8823Z" fill="#6308BD"/>
<path d="M42.9857 54.2153L41.9121 55.5573L43.3883 63.2065L45.267 62.6697L42.9857 54.2153Z" fill="#6308BD"/>
<path d="M112.768 35.6965C112.634 33.9519 110.531 33.594 109.682 33.6835C111.024 34.2203 111.695 34.4887 111.695 35.9649C111.695 37.5748 110.442 38.3219 109.547 38.5146C111.56 38.112 112.934 37.8539 112.768 35.6965Z" fill="#6308BD"/>
<path d="M42.8766 46.213L39.9031 46.9127C39.49 47.0099 39.0942 46.6964 39.0942 46.272C39.0942 45.9713 39.298 45.7089 39.5893 45.6344L44.0468 44.4941C44.4921 44.3802 44.9423 44.6616 45.035 45.1118L45.6817 48.2534C45.7525 48.5972 45.5668 48.9425 45.2408 49.0729C44.8303 49.2371 44.3696 48.9988 44.2664 48.5688L43.844 46.8089C43.7406 46.3778 43.3081 46.1115 42.8766 46.213Z" fill="#6308BD"/>
<path d="M45.1327 51.1291C44.918 50.2702 45.2222 49.8766 45.4011 49.7871C45.6695 49.7871 45.9379 49.7871 46.2063 50.7265C46.4747 51.6659 46.3405 52.2027 46.0721 52.2027C45.8037 52.2027 45.4011 52.2027 45.1327 51.1291Z" fill="#6308BD"/>
<path d="M113.439 30.9995C112.58 30.3554 110.844 30.1943 110.084 30.1943C108.876 30.9995 111.56 30.9995 113.036 31.8047C114.512 32.6099 114.646 34.757 115.183 34.086C115.72 33.4151 114.512 31.8047 113.439 30.9995Z" fill="#6308BD"/>
<path d="M116.124 35.8304C116.124 35.2936 115.721 34.7568 115.319 34.891C115.05 35.0252 115.319 35.562 115.319 35.9646C115.319 36.3672 115.721 37.1723 115.989 37.0381C116.258 36.9039 116.124 36.3671 116.124 35.8304Z" fill="#6308BD"/>
<path d="M98.8119 70.9899C98.0068 70.6679 96.2622 71.2583 96.5306 71.7951C96.6648 72.0635 98.0068 71.3925 98.4093 71.5267C98.8119 71.6609 98.8119 73.9422 99.2145 73.9422C99.8988 73.9422 99.4829 71.2583 98.8119 70.9899Z" fill="#6308BD"/>
<path d="M71.7044 38.2461L64.4578 40.93L65.1287 44.4191L69.9598 41.0642L71.3018 57.5704L74.1199 55.1549L71.7044 38.2461Z" fill="#6308BD"/>
<path d="M76.2671 46.1637L76.4013 49.116L83.2453 56.2285L94.2495 55.4233L94.5179 53.1419L84.5873 53.8129L76.2671 46.1637Z" fill="#6308BD"/>
<path d="M104.85 76.4285V57.5703L102.972 58.1071V76.5156L104.85 76.4285Z" fill="#6308BD"/>
<path d="M106.998 59.4492V61.1938L109.95 65.3539L111.695 65.2197L106.998 59.4492Z" fill="#6308BD"/>
<path d="M113.305 67.7694L111.56 68.3062L114.781 73.6741L117.331 72.8689L113.305 67.7694Z" fill="#6308BD"/>
<path d="M33.5927 75.6871C32.6533 72.198 35.7846 68.7536 36.9477 67.7695C34.2637 68.5747 31.043 70.9903 31.9824 76.2239C32.7339 80.4109 37.4844 79.8472 38.558 79.4447C36.0083 79.1763 34.3458 78.4844 33.5927 75.6871Z" fill="#6308BD"/>
<path d="M37.2147 87.0936L35.8728 88.4355L33.5914 82.6651C40.1671 82.3967 42.3142 81.5915 42.5826 81.0547C42.7973 80.6253 42.2248 79.8022 41.9116 79.4443C44.193 79.4443 45.1324 81.1889 43.9246 82.6651C42.9584 83.846 38.3331 84.0518 36.2754 84.1412L37.2147 87.0936Z" fill="#6308BD"/>
<path d="M55.1977 81.9944L51.977 64.4147L50.2324 65.0856L53.5873 82.397L55.1977 81.9944Z" fill="#6308BD"/>
<path d="M56.0029 71.7955L55.7345 70.1851L60.5656 69.5141L59.7604 61.5965L62.4443 61.3281V70.8561L56.0029 71.7955Z" fill="#6308BD"/>
<path d="M62.7127 73.0032L61.3708 73.1374L61.9075 80.3841H63.2495L62.7127 73.0032Z" fill="#6308BD"/>
<path d="M91.2652 69.2807L90.6715 59.7816C90.6486 59.416 90.2789 59.1765 89.9359 59.3051C89.7085 59.3904 89.5649 59.6158 89.5838 59.858L90.3232 69.3468C90.3424 69.5926 90.5474 69.7823 90.7939 69.7823C91.0663 69.7823 91.2822 69.5525 91.2652 69.2807Z" fill="#6308BD"/>
<path d="M53.7216 38.3806L53.5874 35.0256L56.1371 34.623V37.7096L53.7216 38.3806Z" fill="#6308BD"/>
<path d="M54.3927 60.3884L55.6004 41.1982L54.1243 41.6008L52.1113 60.791L54.3927 60.3884Z" fill="#6308BD"/>
<path d="M57.345 43.3454L57.2108 45.4925L59.358 48.8475L61.6393 48.0423L57.345 43.3454Z" fill="#6308BD"/>
<path d="M63.9206 51.934L61.3709 52.8734L65.531 57.9728L67.6782 56.7651L63.9206 51.934Z" fill="#6308BD"/>
<path d="M70.7638 79.5786L74.1187 59.9858L72.6426 60.2542L68.3483 79.847L70.7638 79.5786Z" fill="#6308BD"/>
<path d="M75.3265 62.6698L74.9239 64.9511L77.0711 69.3796H78.9498L75.3265 62.6698Z" fill="#6308BD"/>
<path d="M80.6944 72.4661L78.2788 72.8687L81.9021 78.2366L83.7809 77.2972L80.6944 72.4661Z" fill="#6308BD"/>
<path d="M79.2914 65.2684L76.785 60.7331C76.7158 60.6078 76.5734 60.5418 76.433 60.5699C76.2166 60.6132 76.1035 60.8534 76.2082 61.0478L78.6649 65.6102C78.7509 65.77 78.9431 65.8397 79.1116 65.7723C79.3109 65.6926 79.3952 65.4563 79.2914 65.2684Z" fill="#6308BD"/>
<path d="M65.3885 66.2448L65.3154 62.5496C65.3124 62.4011 65.2116 62.2725 65.0681 62.2342C64.8564 62.1776 64.6487 62.3371 64.6487 62.5562L64.6486 66.2521C64.6486 66.4313 64.777 66.5847 64.9534 66.6163C65.1831 66.6574 65.3931 66.4782 65.3885 66.2448Z" fill="#6308BD"/>
<path d="M62.5422 45.6901L60.6763 42.0826C60.6109 41.9563 60.4699 41.8885 60.3304 41.9164C60.1165 41.9592 60.0077 42.1993 60.1165 42.3883L62.1431 45.9081C62.2478 46.09 62.5221 46.0451 62.5632 45.8392C62.5734 45.7886 62.5659 45.736 62.5422 45.6901Z" fill="#6308BD"/>
<path d="M80.2597 67.2537C80.1255 66.9853 79.8571 66.4485 79.5887 66.5827C79.4545 66.7169 79.4545 66.8511 79.5887 67.1195C79.7229 67.3879 79.9913 67.9247 80.2597 67.9247C80.5281 67.9247 80.3939 67.5221 80.2597 67.2537Z" fill="#6308BD"/>
<path d="M65.3964 69.2454C65.3964 68.9454 65.4281 68.0376 65.128 68.0377C64.948 68.0977 64.8595 68.677 64.8596 68.977C64.8597 69.2771 64.972 70.4047 65.2121 70.5247C65.4522 70.6446 65.3965 69.5455 65.3964 69.2454Z" fill="#6308BD"/>
<path d="M63.3833 46.9689C63.2491 46.7005 63.2156 46.5875 62.9472 46.7217C62.813 46.8558 62.813 46.9689 62.9472 47.2373C63.0814 47.5057 63.115 47.5057 63.3833 47.5057C63.6517 47.5057 63.5175 47.2373 63.3833 46.9689Z" fill="#6308BD"/>
<path d="M87.5391 39.7221C87.5391 35.6426 90.0441 33.1018 91.2966 32.3413C89.731 32.5202 85.9287 34.4885 85.9287 40.2589C85.9287 46.1792 90.2677 48.7133 92.6386 49.2501C88.4785 46.5662 87.5391 44.8216 87.5391 39.7221Z" fill="#6308BD"/>
<path d="M97.6036 37.5751C97.4963 35.2133 94.696 34.8912 93.3093 35.0254C95.0539 35.1596 95.8591 35.6964 96.3959 36.2332C96.8253 36.6626 96.8432 37.3067 96.7984 37.5751H97.6036Z" fill="#6308BD"/>
<path d="M98.9463 45.8951C98.6779 45.3583 98.1412 44.6873 98.4096 44.4189C99.0806 44.8215 100.154 46.5661 99.8857 46.5661C99.6173 46.5661 99.2147 46.4319 98.9463 45.8951Z" fill="#6308BD"/>
<path d="M99.8857 36.7697C99.671 35.2667 98.5437 34.1752 98.0069 33.8174C97.4702 34.22 98.9463 35.5619 99.2147 36.7697C99.4831 37.9775 99.4831 39.3195 99.8857 39.4536C100.288 39.5878 100.154 38.6485 99.8857 36.7697Z" fill="#6308BD"/>
<path d="M49.4268 72.1978L46.2061 73.1371L49.4268 74.8817V72.1978Z" fill="#F0FAF0"/>
</svg>
