<svg width="56" height="69" viewBox="0 0 56 69" fill="none" xmlns="http://www.w3.org/2000/svg">
<g clip-path="url(#clip0_6_535)">
<path d="M14.3023 4.95885L32.957 2.41763L41.4981 11.1427L9.12038 15.5534L14.3023 4.95885Z" fill="#D72434"/>
<path d="M26.2926 23.235L14.3026 4.95881L5.43738 11.4484L17.3593 28.3107L26.2926 23.235Z" fill="#E85E45"/>
<path d="M26.2924 23.235L32.957 2.41757L43.2362 6.29927L36.2592 25.736L26.2924 23.235Z" fill="#E85E45"/>
<path d="M23.8318 66.3856L9.85247 57.5491L4.80749 41.7799L11.0591 26.4572L25.6815 18.7496L41.834 22.2649L51.9564 35.3571L51.3132 51.9012L40.2069 64.1549L23.8318 66.3856Z" fill="#FFC80D"/>
<path d="M25.0264 60.5809L14.3766 53.8486L10.5324 41.8343L15.2958 30.1611L26.4361 24.2887L38.7412 26.9673L46.4534 36.9411L45.9641 49.5456L37.5019 58.8814L25.0264 60.5809Z" fill="#FC9E15"/>
<path d="M23.4822 36.0499C23.346 36.1028 23.1382 35.8819 23.0445 35.7166C23.0001 35.6514 22.9906 35.5815 23.0556 35.537L30.3534 31.3327C30.4053 31.3007 30.4638 31.281 30.5245 31.2751C30.5641 31.2703 30.6042 31.2739 30.6424 31.2855C30.6805 31.2972 30.7158 31.3166 30.7461 31.3426C30.7764 31.3686 30.8009 31.4006 30.8182 31.4366C30.8355 31.4726 30.8452 31.5118 30.8465 31.5517C30.9085 32.0062 31.7819 40.766 32.0491 42.7277C32.4195 45.708 32.9765 50.5885 33.0336 51.0081C33.0767 51.324 33.4713 51.3415 33.7251 51.3781L35.646 51.3708C35.7555 51.3915 35.8935 51.622 35.9126 51.7619C35.9223 51.833 35.927 51.868 35.8223 51.8823C34.7345 51.9948 33.087 52.1824 31.0605 52.4584C29.034 52.7345 27.1171 53.0325 26.318 53.177C26.2482 53.1865 26.2435 53.1515 26.2338 53.0803C26.2195 52.9755 26.2512 52.6862 26.386 52.6323L28.3744 52.0765C28.5802 52.0129 28.815 51.9097 28.7767 51.6287C28.6781 50.6437 27.7865 44.8816 27.5848 43.6614C27.3117 41.918 26.5785 37.0577 26.2784 35.6372C26.2054 35.3623 26.0059 35.2114 25.8012 35.2749L23.4822 36.0499Z" fill="#FC6C00"/>
<path d="M22.6981 35.8478C22.5633 35.9017 22.3555 35.6808 22.2619 35.5155C22.2175 35.4503 22.2079 35.3804 22.273 35.3359L29.5707 31.1316C29.6217 31.0986 29.68 31.0785 29.7404 31.0729C29.7802 31.0681 29.8205 31.0717 29.8588 31.0834C29.8971 31.0951 29.9326 31.1146 29.963 31.1407C29.9934 31.1668 30.018 31.1989 30.0354 31.235C30.0528 31.2712 30.0625 31.3105 30.0639 31.3506C30.1258 31.8051 30.998 40.5651 31.265 42.5255C31.631 45.5103 32.1909 50.3942 32.2472 50.8075C32.2903 51.1234 32.6837 51.1411 32.9387 51.1775L34.8596 51.1702C34.9691 51.1909 35.1071 51.4214 35.1262 51.5613C35.1357 51.6312 35.1405 51.6662 35.0358 51.6804C33.948 51.793 32.3006 51.9818 30.2741 52.2579C28.2476 52.5339 26.3306 52.8307 25.5314 52.9752C25.4617 52.9847 25.4569 52.9497 25.4474 52.8798C25.4331 52.7749 25.4648 52.4857 25.5996 52.4317L27.588 51.8759C27.7926 51.8124 28.0273 51.7092 27.9891 51.4283C27.8917 50.4432 26.9989 44.6812 26.7971 43.461C26.5241 41.7176 25.7909 36.8573 25.4908 35.4368C25.4178 35.1619 25.2195 35.0108 25.0148 35.0743L22.6981 35.8478Z" fill="#FECB11"/>
</g>
<defs>
<clipPath id="clip0_6_535">
<rect width="47.5844" height="62.151" fill="white" transform="translate(0.0559082 6.89954) rotate(-7.75731)"/>
</clipPath>
</defs>
</svg>
