<svg width="19" height="18" viewBox="0 0 19 18" fill="none" xmlns="http://www.w3.org/2000/svg">
<path d="M11.6078 0.630242C12.2601 -0.0859458 13.4478 0.450992 13.341 1.41381L12.8374 5.9558C12.7897 6.38639 13.0246 6.79875 13.4194 6.97722L17.5834 8.85975C18.4661 9.25881 18.3225 10.5543 17.3738 10.7503L12.8985 11.6748C12.4742 11.7625 12.1546 12.1134 12.1069 12.544L11.6033 17.0859C11.4965 18.0488 10.22 18.3125 9.74049 17.4708L7.47822 13.5002C7.26375 13.1238 6.8313 12.9283 6.40703 13.0159L1.93171 13.9405C0.983021 14.1365 0.337777 13.004 0.990081 12.2878L4.06724 8.90931C4.35896 8.58902 4.41126 8.11732 4.19679 7.7409L1.93452 3.77033C1.45496 2.92864 2.33263 1.96501 3.21534 2.36408L7.3794 4.24661C7.77415 4.42507 8.23893 4.32905 8.53065 4.00876L11.6078 0.630242Z" fill="#FFCB2A"/>
</svg>
