<svg width="27" height="28" viewBox="0 0 27 28" fill="none" xmlns="http://www.w3.org/2000/svg">
<path d="M17.1919 0.985917C17.8442 0.269729 19.0319 0.806666 18.9251 1.76949L18.04 9.75158C17.9923 10.1822 18.2272 10.5945 18.622 10.773L25.9399 14.0814C26.8226 14.4804 26.679 15.7759 25.7303 15.9719L17.8654 17.5967C17.4411 17.6844 17.1215 18.0353 17.0738 18.4658L16.1887 26.4479C16.0819 27.4108 14.8055 27.6745 14.3259 26.8328L10.3502 19.8549C10.1357 19.4785 9.70329 19.283 9.27902 19.3706L1.4141 20.9955C0.465408 21.1915 -0.17984 20.059 0.472464 19.3428L5.88026 13.4054C6.17198 13.0851 6.22428 12.6134 6.00982 12.237L2.0341 5.25907C1.55454 4.41738 2.43221 3.45375 3.31492 3.85282L10.6328 7.16117C11.0276 7.33964 11.4924 7.24362 11.7841 6.92333L17.1919 0.985917Z" fill="#FFCB2A"/>
</svg>
